# xmcd
#
# Track frame offsets: 
#        150
#        13195
#        24272
#        36100
#        44907
#        64742
#        74660
#        88570
#        100697
#        112280
#        123042
#        136537
#        150680
#        162107
#        173250
#        183040
#        196247
#        207320
#        220127
#        231850
#        241530
#        252837
#        264787
#        277525
#
# Disc length: 3854 seconds
#
# Revision: 2
# Processed by: cddbd v1.5PL3 Copyright (c) Steve Scherf et al.
# Submitted via: ExactAudioCopy v0.95a4
#
DISCID=330f0c18
DTITLE=Peggy Lee - Pretty Eyes and Guitars Ala Lee
DYEAR=1900
DGENRE=Vocal
TTITLE0=As You Desire Me
TTITLE1=It Could Happen To You
TTITLE2=Pretty Eyes
TTITLE3=Moments Like This
TTITLE4=Remind Me
TTITLE5=You Fascinate Me So
TTITLE6=I Wanna Be Loved
TTITLE7=I'm Walking Through Heaven With You
TTITLE8=I Remember You
TTITLE9=Too Close For Comfort
TTITLE10=In Other Words
TTITLE11=Because I Love Him So
TTITLE12=Nice 'n' Easy
TTITLE13=Strangers In The Night
TTITLE14=Mohair Sam
TTITLE15=Goodbye My Love
TTITLE16=Think Beautiful
TTITLE17=An Empty Glass
TTITLE18=Good Times
TTITLE19=Sweet Happy Life
TTITLE20=Touch The Earth
TTITLE21=Beautiful, Beatiful World
TTITLE22=My Guitar
TTITLE23=Call Me
EXTD=
EXTT0=
EXTT1=
EXTT2=
EXTT3=
EXTT4=
EXTT5=
EXTT6=
EXTT7=
EXTT8=
EXTT9=
EXTT10=
EXTT11=
EXTT12=
EXTT13=
EXTT14=
EXTT15=
EXTT16=
EXTT17=
EXTT18=
EXTT19=
EXTT20=
EXTT21=
EXTT22=
EXTT23=
PLAYORDER=
